<svg xmlns="http://www.w3.org/2000/svg" xml:space="preserve" width="589.2912" height="157.99986" viewBox="0 0 589.2912 157.99986"><g style="stroke-width:.607595"><path d="M240.898 403.352h-1.518v10.573h1.518zM258.309 403.352h-1.303l-7.069 8.14v-8.14h-1.426v10.573h1.209l7.162-8.185v8.185h1.427zM273.855 412.561h-3.658v-9.209h-1.519v9.209h-3.659v1.364h8.836zM286.566 412.561h-4.479v-3.194h4.325v-1.363h-4.325v-3.287h4.62v-1.365h-6.14v10.573h5.999zM295.154 409.305h.977c1.627 0 2.094.838 2.078 1.721-.016.992-.605 1.597-2.078 1.597h-.977zm1.149 4.62c2.137 0 3.47-1.132 3.47-2.961 0-1.224-.634-2.139-1.767-2.589.963-.635 1.552-1.612 2.356-2.93.451-.728.714-1.085 1.443-2.093h-1.815l-1.393 2.171c-1.396 2.17-2.032 2.418-2.808 2.418h-.635v-4.589h-1.518v10.573zM318.034 403.352h-1.302l-7.07 8.14v-8.14h-1.425v10.573h1.208l7.162-8.185v8.185h1.427zM327.956 407.833h3.286l-1.705 3.829zm6.867-4.481h-1.55l-1.411 3.116h-4.495l-1.333-3.116h-1.552l4.544 10.635h1.068zM347.659 412.561H344v-9.209h-1.521v9.209h-3.659v1.364h8.839zM355.904 403.352h-1.518v10.573h1.518zM368.74 404.608c2.372 0 4.125 1.721 4.125 4.031 0 2.325-1.753 4.031-4.125 4.031-2.354 0-4.107-1.706-4.107-4.031 0-2.31 1.753-4.031 4.107-4.031m0 9.456c3.489 0 5.69-2.48 5.69-5.425 0-2.852-2.138-5.426-5.719-5.426-3.458 0-5.643 2.558-5.643 5.426 0 2.93 2.247 5.425 5.672 5.425M391.357 403.352h-1.302l-7.071 8.14v-8.14h-1.423v10.573h1.208l7.161-8.185v8.185h1.427zM401.276 407.833h3.287l-1.706 3.829zm6.868-4.481h-1.55l-1.411 3.116h-4.495l-1.334-3.116h-1.549l4.542 10.635h1.07zM416.097 404.717h4.773v-1.365h-6.294v10.573h1.521zM254.89 429.092c-.435-1.426-1.209-3.721-1.768-4.775-.868-.186-3.473-.806-5.705-.806-7.72 0-11.1 5.333-11.1 10.263 0 6.542 5.023 10.821 11.937 10.821 2.512 0 4.62-.682 5.488-.837.248-1.737.435-3.008.62-4.682l-.899-.217c-.837 3.286-2.697 4.62-6.046 4.62-5.178 0-7.938-4.372-7.938-9.085 0-5.798 3.411-9.767 8.124-9.767 3.163 0 4.836 1.706 6.387 4.775zM281.146 443.262c-2.542-.217-2.791-.373-2.791-2.946v-12.527c0-2.604.249-2.759 2.76-2.944v-.869h-8.309v.869c2.666.185 2.914.34 2.914 2.944v6.171h-10.573v-6.171c0-2.573.249-2.759 2.791-2.944v-.869h-8.155v.869c2.481.185 2.729.34 2.729 2.944v12.527c0 2.605-.248 2.76-2.79 2.946v.868h8.03v-.868c-2.356-.186-2.605-.373-2.605-2.946v-5.023h10.573v5.023c0 2.573-.248 2.729-2.666 2.946v.868h8.092zM293.729 440.564h-.059c-.994-2.635-1.955-5.364-2.917-7.906h5.706zm3.04-16.588v.869c1.953.247 2.231.496 1.831 1.705-.405 1.209-1.024 2.883-1.706 4.774h-6.605c-.496-1.395-.961-2.697-1.365-3.969-.651-1.984-.403-2.263 1.954-2.51v-.869h-6.76v.869c1.985.278 2.419.464 3.473 3.223l6.417 16.248.964.279c1.922-5.302 3.997-11.224 5.981-16.589.964-2.665 1.397-2.945 3.412-3.161v-.869zM313.878 428.038c0-2.357 1.023-2.946 3.286-2.946 5.769 0 8.467 4.341 8.467 9.302 0 3.194-1.18 5.985-3.659 7.442-1.396.868-3.196 1.271-5.271 1.271-1.303 0-2.109-.156-2.42-.403-.278-.186-.403-.528-.403-1.768zm3.411 16.092c3.938 0 6.82-.775 8.745-2.636 1.55-1.488 2.636-3.751 2.636-6.666 0-3.721-1.459-6.48-3.816-8.278-2.325-1.798-5.424-2.574-9.208-2.574h-7.318v.837c2.667.187 2.914.372 2.914 3.008v12.464c0 2.666-.247 2.791-2.635 2.977v.868zM360.818 443.262c-2.14-.28-2.42-.528-3.349-3.101-.682-1.985-2.573-7.845-5.117-16.526h-.961c-1.705 4.992-3.844 10.976-5.424 15.472h-.063c-1.737-5.488-3.474-10.449-5.054-15.472h-.961c-1.644 5.612-3.381 11.069-5.086 16.588-.774 2.543-1.24 2.822-3.131 3.039v.868h7.534v-.868c-2.263-.28-2.325-.528-1.859-2.109 1.208-4.185 2.417-8.371 3.781-12.774h.062c1.675 5.271 3.443 10.418 5.024 15.472h.898c1.738-5.116 3.534-10.139 5.427-15.503h.061c1.304 4.155 3.039 10.232 3.504 12.433.435 1.86.31 2.201-2.109 2.481v.868h6.823zM364.811 423.976v.869c2.543.185 2.791.371 2.791 3.007v12.402c0 2.635-.248 2.822-2.791 3.008v.868h8.215v-.868c-2.542-.186-2.789-.373-2.789-3.008v-12.402c0-2.667.247-2.822 2.789-3.007v-.869zM397.115 429.092c-.435-1.426-1.209-3.721-1.768-4.775-.868-.186-3.472-.806-5.703-.806-7.722 0-11.102 5.333-11.102 10.263 0 6.542 5.023 10.821 11.937 10.821 2.511 0 4.621-.682 5.488-.837.25-1.737.434-3.008.622-4.682l-.901-.217c-.836 3.286-2.698 4.62-6.044 4.62-5.18 0-7.938-4.372-7.938-9.085 0-5.798 3.409-9.767 8.122-9.767 3.162 0 4.836 1.706 6.389 4.775zM416.086 423.976c-2.419 2.697-4.93 5.737-7.69 9.023-.742.837-1.146.93-1.674.837v-5.86c0-2.728.281-2.946 2.854-3.131v-.869h-8.062v.869c2.356.185 2.603.403 2.603 3.131v12.123c0 2.822-.247 2.977-2.697 3.163v.868h8v-.868c-2.389-.186-2.698-.403-2.698-3.163v-5.426c.682.155 1.301.59 2.172 1.395 1.706 1.644 3.781 3.814 5.176 5.52.93 1.116.899 1.426-.494 1.58l-.714.094v.868h7.441v-.868c-2.326-.217-3.069-.528-5.022-2.326-1.211-1.085-3.411-3.317-5.489-5.426 2.325-2.946 5.737-6.759 7.286-8.434 1.644-1.767 2.264-2.046 3.753-2.231v-.869zM181.344 393.836a1.7 1.7 0 0 1-.492-.119c-.073-.028-.444-.176-.506-.117.188-.178.404-.336.597-.514l.012-.014h.55c-.025.123-.011.242-.03.367-.022.145-.106.258-.131.397m13.958 57.975.016.081-.016.004zm-5.044-18.132 3.305 4.048v4.446l-5.933-7.881zm.518-.549v-15.3l2.787 2.885v15.827l-2.788-3.412zm-3.348-18.764 2.598 2.69v15.908l-2.598.605zm7.874-21.294h2.946v57.762l-2.946.595zm14.973 23.563v15.84l-2.785-3.567v-15.107zm0 21.458-6.029-8.008 2.717-.634 3.312 4.243zm-11.276-29.659c.513.218 1.454.534 2.528.474 3.23-.183 2.328-2.26 2.222-3.48-.117-1.329.435-2.673 1.809-3.617 1.386-.953 2.031-1.784 2.155-2.395 0 .648-1.118 2.009-1.899 2.662-.777.654-1.228 1.563-1.228 2.588s.098 1.203.06 2.414c-.035 1.004-.901 1.75-2.248 1.959v1.319l7.206-1.204.698.446-11.303 1.935zm5.141 21.293.014.064-.014.004zm-2.62-28.393c-.348 0-.707-.016-1.062-.041a17 17 0 0 1-1.458-.141v-8.08h3.398v4.211c3.002.141 5.315.988 5.315 2.015 0 1.125-2.775 2.036-6.193 2.036m2.62 11.266 1.859-.316.738.751v15.698l-2.597.606zm-36.167-19.221c.002-.084-.01-.178.023-.26.008-.015.025-.031.038-.047h.134c-.017.137-.022.285.025.383.008-.129.031-.254.053-.383h.341c.072.211.15.418.21.639-.292-.029-.585-.061-.866-.074.016-.088.039-.17.042-.258m5.164 4.863c-.077-.018-.147-.043-.221-.062l.002-.002q.072-.092.148-.194.036.128.071.258m-.496-4.49c-.467.109-1.038.324-1.274.793a.46.46 0 0 1 .17.242c-.42-.185-.914-.316-1.442-.426.133-.078.352-.054.532-.078-.131-.183-.457-.219-.693-.324q-.024-.226-.049-.449c.17.105.322.226.369.418.182-.203-.116-.41-.384-.532-.015-.113-.043-.214-.063-.324h2.775c.197.215.409.408.67.524-.207.054-.41.109-.611.156m-1.536 3.68q-.014-.033-.028-.063c-.081-.226-.077-.508-.261-.691.777.222 1.592.211 2.422.105-.653.176-1.276.399-1.869.563q-.129.033-.264.086m40.91 49.93v-54.29h2.945l-.002 53.644zm-41.973-52.303c.294.033.581.052.842.048.259-.007.507-.023.733-.066a.65.65 0 0 0 .181.32c.087.086.352.219.667.348-.1.039-.203.082-.307.117-.205.074-.5.067-.508.227.294-.028.5-.168.741-.278a1 1 0 0 1 .122-.046c.287.117.608.23.871.3-.005.035.012.069.067.096.083.037.13.01.17-.041l.004.002c.338.064.785.094 1.124.031.026.135.045.264.065.389-.408.023-.805.09-1.193.18-.051-.024-.108-.004-.158-.032l.01-.023c.125-.07.173-.156.07-.281-.439-.377-1.231-.274-1.665-.262-.366.01-.804.098-1.138.312-.132.038-.276-.004-.418-.004-.156.006-.304.036-.459.055-.109-.461-.268-.89-.559-1.23-.257 0-.261-.172-.543-.153.105-.093.115-.168-.043-.234a1.1 1.1 0 0 0-.247.371 1.7 1.7 0 0 1-.266-.555c.481.163 1.02.291 1.549.371.088.18.162.37.166.61.127-.168.138-.367.122-.572m3.324-1.495a2.2 2.2 0 0 0-.115-.492h.549c-.016.129-.037.268-.048.387zm5.444 1.254c.375.008.739-.004 1.096-.027-.084.164-.158.324-.231.477a8 8 0 0 1-.865-.45m-3.085 1.453c.187.165.455-.144.695-.292.238-.157.568-.317.635-.493-.444.266-.909.651-1.33.785m2.931-2.347-.015.017q-.29.028-.569.045c-.397.024-.898.118-1.164.467.197.201.027.463.215.725.039.054.149.144.287.242-.088.234-.155.488-.317.672.03-.012.125-.071.14-.014-.005-.025.007.233.008.233-.017.091-.149.242-.2.367-.068.172-.074.34-.16.422-.002.179.164.57-.014.64a.35.35 0 0 0-.164-.133c.138.039.217-.14.188-.277-.1.246-.19-.012-.319-.027-.203-.028-.558-.008-.883.019-.099.008-.213.02-.324.035q-.012-.21-.008-.421c.072-.04.149-.075.219-.118q.02-.152.043-.304c-.147-.014-.226.027-.241-.141a1 1 0 0 1 .036-.422c.069-.195.158-.387.229-.586.136-.388.259-.783.426-1.16.103-.23.16-.236.414-.332.437-.16.864-.35 1.272-.574l.02-.115c.125.029.252.048.383.076.157.035.467.176.356.086-.155-.078-.37-.117-.571-.184q-.076-.026-.154-.062l.005-.028h1.743a9 9 0 0 0-.881.852m42.566-1.852h-65.799v65.802h65.799zm-68.89 68.973v-72h72v72zm21.984-66.266a6 6 0 0 1-.252-.078c.024-.062.043-.125.069-.187.154-.03.31-.057.459-.088a1.7 1.7 0 0 0-.276.353m-.599-.189c.12-.018.23-.045.347-.065-.019.051-.038.106-.059.157-.093-.032-.198-.059-.288-.092m.587-1.518h.615l.011.08q-.361.085-.712.18c.035-.08.055-.174.086-.26m.815 1.641c-.209-.039-.181-.178-.414-.203.063-.039.078-.076.064-.117.182-.041.357-.094.535-.141.009.023.014.051.032.072a5 5 0 0 0-.153.531c-.021-.046-.037-.095-.064-.142m-15.839 34.672c.011-.203-.085-.278-.126-.42-.116-.508-.092-1.186-.285-1.6.032-.078.065-.16.103-.235.124.411.285.813.462 1.185-.084.332-.022.771-.154 1.07m1.386-7.837a3 3 0 0 0-.037.368c-.055-.153-.143-.316.037-.368m-3.44-7.704q-.132-.22-.269-.44c.146.099.323.215.507.333-.079.035-.158.074-.238.107m3.607 5.726c.051.03.696.17.698.155-.044.238-.172.438-.435.5l-.049.116-.299.036c.028.119.088.225.152.328a4.4 4.4 0 0 0-.23.824c-.115.002-.199-.027-.24-.102-.264-.454-.412-1.031-.732-1.427.573-.6.923-1.359 1.192-2.174.12.221.206.485.303.737-.039.017-.08.041-.117.058-.234.109-.512.287-.577.563.177.074.146.273.334.386m-1.462 2.407c-.039-.039-.103-.141-.1-.198.028.004.057-.003.086 0 .098.057.213.155.284.225.127.125.205.335.333.457.291.281.63.484.958.63l-.036-.05c.373-.445.5-1.066.682-1.646q.186.138.357.267l.15.113c.261.559.556 1.086.862 1.555-.711-.119-1.586-.062-2.394-.078-.161-.277-.389-.533-.621-.778-.175-.183-.415-.347-.561-.497m.93 1.498q0-.002.003-.004.014.003.026.007zm-.378-1.722c.133-.021.267-.044.393-.075.062.003.284.23.297.288.006.007.018.005.018-.007-.007.355.06.717.248 1.059-.311-.436-.622-.86-.956-1.265m13.845-21.664c.008-.004.011-.013.019-.017l.005.013q-.013.003-.024.004m-15.013 25.518-.011-.011h.007zm.232-4.787v-.002c.258-.132.173-.548.345-.753.02.103.058.199.104.292.002.023.002.045.016.069.018.018.03.025.044.037.125.214.283.41.384.588a.8.8 0 0 1 .108.32 1.6 1.6 0 0 0-.406-.019c-.186-.186-.4-.352-.595-.532m-.333 5.784a.6.6 0 0 0-.175.234c-.084-.352-.191-.713-.245-1.057.05.061.6.686.567.724-.044.05-.098.063-.147.099m.477-3.635-.003-.072c.087.163.172.326.243.507-.096.008-.18.026-.273.035.113-.072.043-.298.033-.47m-.256-2.256c-.03-.034-.071-.059-.099-.094l-.231.027c.078-.085.224-.238.325-.269-.066.078.027.168.019.285 0 .014-.009.033-.014.051m-1.45-13.377q.05.257.112.51c.022.093.063.176.086.267.016.063-.002.17.037.21-.157-.004-.299-.087-.444-.137.045-.118.075-.229.055-.309a5 5 0 0 0-.125.285 8 8 0 0 0-.724-.189v-.952q.4-.392.827-.763.07.542.176 1.078m-.271-1.992c-.135.04-.277.092-.424.138-.099.031-.21.047-.308.07v-.078c.206-.269.686-.863.685-.898.008.256.028.512.047.768m.002.031c.018.229.039.452.067.678-.001-.011-.213.25-.232.27-.083.093-.208.171-.309.242q-.129.087-.26.167v-1.098c.191-.046.365-.121.543-.196.051-.022.123-.042.191-.063m-.734 1.525v-.099c.069-.049.143-.096.212-.145-.008.09-.115.171-.212.244m.223-10.953q.093.102.178.215c-.027.057-.05.113-.078.172-.108.031-.215.07-.323.102v-.262l.01.012c.011-.073.165-.133.213-.239m10.876.662.009-.359q.09-.055.178-.096.077.177.151.356l-.002.023q-.17.034-.336.076m-10.384-3.326c.026.387.404.709.459 1.106.013-.028.029-.141.082-.114-.022-.011.183.145.183.145.058.07.088.269.149.389.087.162.212.279.217.396.048.043.13.086.214.133q-.007.012-.015.023c-.006-.004-.01-.011-.018-.013.008.013.002.017.008.029a.5.5 0 0 0-.055.141c-.059.011-.136.013-.181.054a2.5 2.5 0 0 0-.246.274c-.163-.317-.429-.614-.6-.922-.082-.149-.133-.32-.201-.481.021-.168.029-.324-.024-.418q-.023.148-.041.301c-.074-.135-.168-.258-.335-.324a1.6 1.6 0 0 0-.176.582l-.135-.016v-1.496h.786c-.036.108-.071.203-.071.211m13.816 10.466q-.01-.001-.021-.004c.056-.275.077-.527.087-.79q.267.083.545.152c.084.18.282.388.406.575l.134.195c-.082.008-.161.016-.226.01-.07-.01-.114-.071-.165-.078-.253-.036-.511-.033-.76-.06m1.908.19q-.068-.1-.136-.205c.129.08.282.174.441.268a3 3 0 0 1-.305-.063m-16.242 10.18c-.068.037-.132.082-.197.125v-.586c.091.142.178.283.275.426-.025.012-.052.021-.078.035m14.247-10.132c.529.259 1.122.425 1.723.564q.122.154.251.306c-.619-.226-1.354-.362-2.111-.484q.084-.203.137-.386m-14.275 5.296c.244.024.302-.363.413-.625.26-.004.504-.024.725-.072.011.03.017.068.027.096.096.305.127.671.316.937-.062 0-.142-.021-.199.009-.184.095-.471.319-.728.526-.237.192-.536.45-.716.664-.003.002-.004.008-.007.01v-2.193c.178.016.35.027.514.023a2.9 2.9 0 0 1-.345.625m9.942 3.58.004-.023.006.017q-.005.002-.01.006m-7.078 1.905q.225.236.48.441c.268.217.559.402.848.588l.215.137c.065.043.133.103.207.13.062.024.119.012.147-.052.009-.022.048-.231.041-.236.156.113.325.204.515.23a1.75 1.75 0 0 0-.371-.676c.118-.137.004-.446-.027-.689-.035-.28-.043-.647-.178-.787.049.469.173.992.154 1.41.002-.071-.273-.282-.326-.334-.101-.1-.2-.233-.311-.318-.156-.12-.339.031-.497-.032-.17-.064-.315-.234-.455-.344-.168-.132-.348-.25-.507-.394-.21-.19-.343-.508-.678-.539-.092.683.329 1.031.743 1.465m.553-3.178c-.135.103-.264.276-.408.423-.148.153-.415.271-.343.415.247-.149.364-.359.522-.559.099-.125.357-.336.229-.279m5.65 13.142c-1.221.315-2.233 1.067-3.321 1.668-.319.176-.656.42-.777.781a.3.3 0 0 0-.014.125.47.47 0 0 0 .166.274c.102.094.243.219.364.282.201.108 1.188.212 1.629.175.289-.027.592-.08.858-.199.126-.058.199-.145.316-.211-.075-.076-.182-.104-.274-.152-.049-.026-.209-.155-.263-.139.387-.107.705-.266.934-.486-.637.008-1.296.039-1.875-.02a11 11 0 0 0 1.755-.978q.388-.267.741-.576c.101-.087.253-.188.321-.305.016-.03.139-.334.165-.328-.229-.055-.502.033-.725.089m-3.632 11.778c-.359-.051-.71-.106-1.133.015-.246.071-.073.563.027.68.135.156.489.274.728.407.746.419 1.588.872 2.416 1.012-.445-.583-1.082-.933-1.718-1.282.525.056 1.334.15 1.808.027-.383-.537-1.427-.76-2.128-.859m-1.63.76c-.164-.317-.379-.744-.534-.931a3 3 0 0 0-.389-.388c-.217-.043-.146.117-.245.156-.004-.163-.062-.261-.234-.222-.526.22-.769.969-.944 1.359-.185.412-.318.986-.13 1.446.672-.62 1.048-1.45 1.342-2.34.138.255.221.535.337.8.095.22.241.403.293.641.081.371.008.856-.425.959-.315.709-.76 1.854-.203 2.823.473-.559.546-1.406.841-2.093.409 1.057.973 2.092 1.541 2.858.198.266.337.637.706.723-.147-1.743-1.026-3.188-1.881-4.309-.295.001-.635-.383-.358-.64.162.449.496.686.804.957-.048-.842-.259-1.289-.521-1.799m-.804-3.076c-.104-.149-.253-.262-.367-.403-.249-.305-.5-.61-.786-.883-.199-.195-.472-.352-.677-.541-.21-.189-.344-.508-.679-.537-.092.68.33 1.028.743 1.463.592.623 1.192.918 1.795 1.334-.009-.08.065-.098.072-.189.005-.085-.056-.178-.101-.244m9.387-19.992c.136.025.269.061.405.081.149.02.373.037.516-.004.021-.007.36-.211.352-.078-.057.972.391 2.641.978 3.672.188.324.365.654.61.829.043-1.216-.674-2.789-1.147-4.247.324-.357.579-.803.821-1.246.179-.332.299-.754.443-1.028.039-.077.152-.214.237-.237.116.531.382 1.019.663 1.451-.078.064-.074.156-.105.243-.037.106-.104.202-.156.301.031-.058.287-.175.361-.199.143-.049.229.001.299.137q-.121-.28.02-.434c.64-.707 1.648-1.24 1.936-2.109-.089-.15.024-.284-.085-.421a.5.5 0 0 0-.362-.167c-.281.006-.54.139-.827.092.203-.04.251-.15.378-.223.483-.234 1.182-.367 1.526-.668l-.804.316c-.364.139-.741.317-1.059.341-.099-.125-.26-.086-.358-.213-.699-.19.228.087.408.338-.146-.059-.231.115-.402.156-.193.047-.611-.106-.545.142.057.194.241.057.365.072.322.309.883-.004 1.26.146-.525.289-.826.88-1.158 1.237-.123.133-.27.25-.407.302.095-.036-.3-.871-.342-.945-.052-.091-.138-.301-.217-.361-.121-.093-.304.028-.428.059-.106.027-.27.017-.367.07-.263.168-.38.492-.558.735-.138.189-.197.416-.304.621-.087.166-.223.31-.282.492-.032.096-.04.389-.21.324-.064-.025-.108-.136-.189-.171-.075-.031-.165-.042-.244-.057a8 8 0 0 0-.587-.091 8.7 8.7 0 0 0-1.533-.063c-.174.011-.346.03-.52.035.031.159.26.23.387.289.184.088.35.207.539.287q.335.136.692.194m7.796-3.767c.153-.374.539-.638.726-.996.08.154.095.703.147 1.009.182-.009.176-.232.247-.38.185-.41.347-.982.878-1.267.158.47.41.705.561 1.201-.317.313-.418.726-.864.98.417.061.731-.351 1.067-.491.218-.02.318.272.457.461.097-.199-.027-.505-.049-.761.543-.375 1.078-.748 1.44-1.205.086.056-.055.34-.137.481-.09.152-.272.273-.358.425a3.1 3.1 0 0 0-.363 1.067c.468-.547.94-1.067 1.321-1.657.201-.311.289-.7.525-.988-.049-.125-.102-.246-.148-.371q-.183.093-.248-.113c-.979.446-1.389 1.161-2.168 1.7a15 15 0 0 0-.585-1.339c-.092-.192-.176-.388-.267-.58-.068-.144-.178-.257-.345-.188-.126.052-.219.176-.294.286a3.5 3.5 0 0 0-.235.433c-.034.071-.101.317-.171.353-.224.121-.017-.172-.215-.198-.754-.201-2.241.995-2.861 1.475.75.208 1.555-.454 2.348-.778-.256.34-.515.673-.793.992-.161.184-.323.371-.439.588-.057.107-.079.229-.128.334-.048.102-.166.215-.186.329.438-.208.824-.7 1.137-.802m-.349 4.336c.096.262.267.545.441.766.365.465.355.079.41-.318.21.347.448.615.724.784-.175-.608-.38-1.233-.476-1.806.797.971 1.668 1.758 2.621 2.317q.145-.059.289-.11c-.62-1.445-1.851-2.378-2.772-3.328-.272-.285-.668-.598-1.099-.564-.021.286-.324.333-.398.654-.051.217.107 1.188.26 1.605m3.858-6.887c-.13-.014-.283-.136-.388-.209a7 7 0 0 0-.723-.439c-.576-.305-1.042-.757-1.595-1.078-.504-.293-.852-.737-1.333-1.065.304.13.631.208.981.112 1.123-.304 2.631-1.446 2.897-2.2-.614.192-1.381.415-2.036.727-.671.316-1.64.844-1.753 1.254-.097.044-.187.057-.256.03.262.294.556.505.84.738-.193.029-.463-.393-.555-.209.624.355 1.215.765 1.807 1.17.355.242.734.443 1.098.673.223.142.56.203.734.414.325.396-.275.37-.452.62.259-.124.55-.182.805-.314.166-.086.473-.203.444-.39.007.042-.467.17-.515.166m-7.297 2.258c-.137-.108-.34-.191-.522-.296-.188-.106-.373-.333-.496-.233.212.205.448.268.685.374.146.064.422.265.333.155m-3.255.207a5.4 5.4 0 0 0-.533 1.149c-.037.113-.369.922-.289.975.135.088.515-.412.576-.494.278-.367.559-.731.787-1.13.139-.241.219-.538.348-.779.131-.244.408-.447.348-.775-.692.07-.917.555-1.237 1.054m-12.016.34c.145-.124.318-.249.383-.435.026-.077.06-.221.168-.213.51.547 1.546 1.153 2.526 1.52-.018.094-.009.171.104.171.082-.003.11-.041.124-.089q.288.1.556.163c.348.079.693.161.986.115.031.077.056.151.067.221-.429-.069-1.122.053-1.441.237-.021-.1-.041-.557-.116-.358-.032.125.102.277.06.427-.014.054-.031.079-.045.091.016.006.029.008.062.03.062.044.006.544.012.56.129.369.58.594.739.967.003-.032-.009-.144.048-.132-.024-.005.215.1.215.1.076.057.158.243.249.342.128.139.28.223.316.335.019.059.343.111.402.137-.094.083-.282.124-.352.229a2 2 0 0 0-.104.196c-.284.273-.552.55-.774.818-.204.249-.532.469-.519.843.12-.039.233-.089.347-.136q.245-.095.464-.205c-.012.059-.034.125-.045.179-.039.251.112.537-.091.757-.174.064.006-.295-.166-.229.052.102-.03.369.116.359.014.09-.249.227.027.182.091-.031.13-.078.163-.267.565-.385.834-.983 1.045-1.621q.361-.265.682-.559c.734.127 1.666.137 2.489.029-.169.697-.311 1.44-.241 2.125.451-.562.624-1.256.799-1.949.082.516.205 1.315.45 1.744.42-.485.366-1.516.282-2.211.155-.055.299-.119.408-.209a4 4 0 0 0-.449-.103 2.1 2.1 0 0 0-.278-.808c-.089-.149-.329-.036-.429.026-.079.048-.172.08-.228.161-.081.116-.116.332-.155.542-.671 0-1.393.064-2.107.114.226-.242.439-.488.633-.729-.079-.282.206-.697.53-.492-.396.26-.54.638-.724.996.812-.244 1.193-.549 1.622-.92.246-.215.574-.467.767-.728.127-.172.206-.323.275-.466-.011-.218-.151-.112-.214-.198.158-.042.238-.121.155-.274-.118-.152-.292-.25-.478-.33-.076-.87-.302-1.684-.576-2.414q-.02-.08-.039-.16a.5.5 0 0 0 .067-.082l.145.21c.071-.331.092-.597.094-.845.059-.043.132-.079.183-.127l-.18.002a5 5 0 0 0-.121-.877c.166-.112.32-.23.474-.347.034.12-.009.266.048.386.089.182.401.379.597.563.612.576 1.307 1.209 2.074 1.533-.276-.665-.802-1.151-1.326-1.635.323.114.758.266 1.161.359.024.029.048.052.073.081.025.166.083.324.227.441.02-.045.034-.092.052-.139.109.105.209.187.297.231.167.081.338.236.52.293.103.031.331.054.397-.012-.171-.05-.233-.234-.347-.363-.134-.147-.291-.249-.435-.399-.082-.089-.156-.188-.232-.284q.18-.574.256-1.137c.085.012.176.032.253.034a1.3 1.3 0 0 0-.218-.385c.05-.567.04-1.118-.008-1.641.681.171 1.413.272 2.019.261.246-.004.483-.02.703-.059.141.135.286.263.441.372a3 3 0 0 0-.306-.89c.413.087.852.17 1.263.245.451.082 1.032.367 1.386-.045-.479-.509-1.125-.686-1.791-.787-.141-.254-.367-.503-.618-.723l.027.001c.45.008.905.027 1.241-.118-.941-.609-2.373-.885-3.802-1.164a2 2 0 0 0-.026-.331 3 3 0 0 0-.157-.508c-.171-.134-.185.04-.294.032.075-.145.072-.256-.1-.294a1 1 0 0 0-.362.066 9 9 0 0 0 1.159-1.586c.111.191.428.936.513.455.012-.065-.092-.644-.072-.657.077-.045.153-.089.219-.134.131.035.254.063.351.078.039.006.085.01.126.015a2 2 0 0 1-.205.372c.166.011.236-.167.297-.363.232.019.487.015.694-.028q.003.102-.001.195-.018.357-.025.731c-.121.096-.251.207-.374.314-.229.201-.516.471-.686.69-.16.207-.166.524-.455.635-.185-.014.151-.26-.034-.274-.005.114-.207.317-.073.369-.031.086-.334.098-.066.173.099.011.154-.016.277-.169.568-.086 1.029-.383 1.453-.752.03.296.076.586.161.857.213-.418.295-.868.337-1.327.051-.147.072-.352.198-.355.176.441.398.946.648 1.229.098-.179.125-.406.129-.65.765.475 1.781.901 2.611 1.06.366.071.73.149 1.028.079-.827-.779-2.353-1.249-3.701-1.796a7.5 7.5 0 0 0-.25-.947c-.057-.163-.113-.329-.188-.484-.055-.111-.14-.183-.203-.284-.156-.249-.328-.526-.415-.809-.003-.008-.003-.024-.007-.032.143-.043.287-.089.428-.127-.447.18.663.503.79.524.452.073.915.04 1.366-.021.033-.017.067-.032.089.02.145-.046.329-.314.45-.215.141.965.916 2.507 1.703 3.399.246.28.489.566.765.69-.205-1.203-1.228-2.596-1.985-3.926.244-.416.406-.906.552-1.389.09-.302.131-.642.192-.927.22.129.443.242.603.3q.057.023.119.04c.14.175.287.343.438.496-.095.117-.016.273-.11.386.226.11-.242.27.01.235.183-.199.34-.535.59-.227-.117-.166-.142-.312-.067-.43a6 6 0 0 1 .266-.402.24.24 0 0 0 .106-.144q.105-.137.216-.278c.143-.011.286-.027.413-.066a7 7 0 0 0-.269-.121c.202-.266.394-.528.53-.805a9 9 0 0 0 1.569-.367q.057-.147.113-.289a5 5 0 0 0-1.037-.207c.261-.215.474-.543.676-.77h1.278c-.169.598-.331 1.244-.36 1.871a1 1 0 0 0-.473-.002c.035.284-.25.393-.256.723-.006.221.346 1.143.578 1.518.153.242.334.48.557.664.07.058.205.179.307.175.134-.007.076-.181.066-.28-.01-.098.002-.196-.004-.294.275.301.565.516.867.622-.297-.559-.623-1.13-.832-1.673.62.504 1.257.917 1.906 1.249v40.854l9.615 13.682.072-.015.003.013 3.621-.732.001-37.972 3.399-.579v21.524l9.617 13.68.035-.007.006.03 3.654-.804.002-54.247h4.509v63.801h-63.799V432.5c.048-.036.108-.073.139-.109.119-.138.31-.261.409-.424.052-.088.128-.3.079-.383-.089.152-.281.164-.436.24q-.1.054-.191.119v-7.879c.269-.234.544-.466.801-.707.022.045.019.12.083.114.061-.184.205-.442.368-.623q.05.057.098.118c.197.239.402.411.607.569-.348.059-.689.123-1.038.181-.064-.027-.208.001-.255.051-.057.057-.066.165-.053.241.027.134.125.251.213.349.109.122.236.229.361.333.064.054.289.18.31.259.066.249-.173-.026-.246.156-.101.184-.107.456-.064.76-.069.212-.102.446-.035.655.055-.043.098-.095.147-.143.127.453.314.92.483 1.313-.032.257-.011.525.113.781.279-.283.39-.705.546-1.091q.06.399.114.798c.037.265.048.533.09.799.038.233.192.49.193.721 0 .197-.247.558.012.558.202-.002.108-.215.154-.33.308-.188.254-.631.355-.966q.032.059.067.116c.117.182.191.433.429.504 0-.025-.007-.049-.007-.074.187.248.39.473.531.688.101.154.18.327.201.472-.428-.067-1.12.055-1.437.238-.024-.099-.043-.558-.12-.358-.031.127.103.276.062.427-.015.054-.031.079-.046.092.016.005.031.007.063.031.061.043.007.543.011.558.099.282.362.463.55.682.116.135 1.008.858 1.136.971.061.055.17.099.113.201-.037.066-.139.06-.18.123-.11.168-.243.493-.358.792-.105.276-.228.636-.273.903-.027.165.006.352.012.518.019.461.537-.192.618-.313.191-.285.375-.65.476-.977.018-.06.109-.734.085-.741.938.311 2.673.325 3.817.031.361-.091.725-.178.954-.365-1.18-.363-2.885-.088-4.419-.02-.273-.405-.65-.77-1.029-1.117-.282-.262-.665-.488-.9-.699-.065-.057-.173-.204-.176-.289.544.029 1.083-.098 1.57-.254.075-.024.211.23.298.242.234.029.007-.383-.034-.461-.06-.11-.143-.206-.21-.315-.165-.268-.304-.55-.446-.832-.268-.529-.559-1.106-1.074-1.439-.008.002-.012 0-.02.002a6 6 0 0 0-.297-.742c.145.056.182.242.322.303-.101-.473-.492-.975-.519-1.303-.015-.01-.026-.026-.039-.037-.036-.336-.13-.57-.24-.83l-.021-.046c.146.024.292.047.419.065.101.091.276.174.409.261.47.305 1.003.639 1.54.764-.263-.4-.666-.656-1.069-.914.343.06.871.155 1.19.094-.225-.369-.904-.559-1.358-.654-.235-.049-.462-.1-.748-.038-.081.018-.119.161-.09.224a.5.5 0 0 1-.091-.059c-.357-.29-.882-.593-1.038-1.18.401-.019.786-.175 1.187-.207a2.7 2.7 0 0 0-.153.418 2 2 0 0 0-.021.523c.099-.064.201-.151.297-.224.035-.027.306-.342.277-.373.189.207.383.407.477.73.158-.383-.17-.793-.229-1.151.029-.212.324-.236.541-.314.617.129 1.43.156 2.025.043a5 5 0 0 0 .309-.064c.05.074.101.158.152.227.197.265.338.636.705.724-.149-1.742-1.025-3.189-1.881-4.309-.24 0-.503-.254-.447-.488.064.008.119.008.172.01.178.342.457.56.722.795a4 4 0 0 0-.141-.868c.193-.058.339-.152.3-.296-.039.162-.266-.012-.356-.059.26-.055.477-.146.638-.281-.282-.015-.567-.029-.842-.053l-.088-.178q.232-.099.45-.21c.012.028.022.058.043.081.134.154.487.274.726.407.746.418 1.589.872 2.417 1.01-.445-.582-1.084-.932-1.719-1.282.526.058 1.333.151 1.81.028-.383-.537-1.43-.759-2.128-.86l-.133-.017c.094.013.324-.254.342-.33-.317-.11-.806.082-1.105.187-.084.03-.996.424-.985.446a3 3 0 0 0-.284-.456 3 3 0 0 0-.389-.387c-.218-.046-.146.115-.247.153-.003-.16-.061-.26-.231-.219-.528.219-.77.969-.946 1.358l-.018.049a.8.8 0 0 0-.287-.048c.086.038.181.064.267.102-.068.17-.125.358-.156.555-.072-.285-.248-.58-.25-.772-.207-.173-.295-.47-.483-.665.114-.015.462.093.665.126.031-.114-.111-.16-.189-.234-.222-.205-.551-.428-.625-.818.33.002.528-.104.87-.092.133.266.374.416.444.748.122-.246-.073-.528-.094-.77.031-.14.234-.14.381-.184-.107-.104-.325-.091-.492-.134-.125-.418-.256-.83-.471-1.153.055-.044.203.105.277.188.077.088.117.227.194.314.18.197.393.344.602.454-.25-.407-.485-.813-.78-1.178-.156-.191-.385-.33-.518-.539l-.263.014q.022.133-.122.131c.085.705.454 1.111.641 1.713-.017-.055-.855.064-.945.074-.138.016-.277.035-.414.046-.1.008-.193.004-.21.129-.013.09.046.182.097.254.066.094.15.176.234.255.041.04.196.141.207.198.031.164-.113-.027-.171.091-.275.427.181 1.607.359 2.097.283-.422.025-1.065-.02-1.627.006.08.164.236.211.305q.11.164.214.332c.091.147.145.333.28.447.058.049.131.094.18.132.076.057.116.103.181.179q-.021.165-.009.33c-.111.011-.149-.057-.285-.02.044-.06.039-.101-.053-.119-.148.21-.085.596-.207.826.016-.133-.043-.187-.063-.281-.052-.35.004-.815-.117-1.092l.039.566c.015.256.051.53.004.733-.099.035-.107.142-.207.176-.024.008-.033.068-.055.082-.025.019-.058.007-.089.019-.112.044-.172.102-.2.211-.035.131-.127.199-.229.291-.105.094-.285.16-.246.258.17-.088.258-.221.371-.346.028-.031.073-.068.112-.101.169.738.525 1.254.838 1.82.02.234.034.464 0 .652q-.16.019-.315.041c-.182-.255-.355-.513-.568-.748-.019-.021-.043-.038-.063-.057-.009-.059-.011-.118-.025-.176-.044-.181-.088-.507-.276-.526l.069.488a2 2 0 0 1-.125-.111c-.128-.133-.202-.35-.42-.383-.075.359.083.59.278.826-.35.432-.763.818-1.211 1.18v-1.369c.242-.094.464-.19.562-.289.085-.087.217-.16.291-.26.039-.057.098-.194.071-.25-.067.095-.194.095-.299.138-.119.052-.215.129-.338.184-.093.042-.19.074-.287.107v-4.711c.471-.381.97-.74 1.439-1.123.012.032.004.079.047.079.055-.129.137-.254.233-.358a.6.6 0 0 1 .156-.131c.111-.062.146.039.151.127.007.106.005.238.072.327-.028-.188-.005-.382-.038-.568-.021-.121-.033-.338-.156-.359q.012.162.022.325a5.2 5.2 0 0 1-1.748 1.364c.013.079-.038.094-.079.128-.03.023-.066.041-.099.062v-2.602q.043-.023.087-.044c.153-.076.328-.154.507-.236a4.4 4.4 0 0 0 .764.788 3.1 3.1 0 0 0-.305-.997 4 4 0 0 0 .505-.276c.19.097.377.182.541.219a1.2 1.2 0 0 0-.189-.523c.098-.088.201-.179.266-.286.052-.089.129-.302.08-.383-.089.151-.282.163-.434.238-.058.029-.107.063-.158.098a5.8 5.8 0 0 0-.969-.862c-.213-.156-.422-.313-.695-.417v-.677c.279-.083.546-.196.788-.36.177-.117.344-.252.506-.391m25.555-15.648c.258-.453.397-.965.538-1.473.076.512.191 1.301.433 1.729.438-.475.391-1.514.315-2.201l-.003-.024h1.133v3.516c-.666-.496-1.379-.895-1.998-1.317a2.7 2.7 0 0 0-.418-.23m-18.941 2.193c.082.284.052.69-.125.959-.069.004-.139.008-.207.021-.075.015-.145.04-.217.062l-.239-.055c.268-.13.058-.203-.051-.012l-.546-.123c-.045-.139-.098-.276-.15-.412.532-.428.959-.981 1.348-1.578.078.332.058.734.13 1.072-.222.228-.36.561-.571.806.292-.151.368-.554.628-.74m-1.559-1.091.051-.055c.02.023.051.039.061.07.135-.078.138.08.146.153-.031.039-.065.074-.094.113q-.147-.057-.304-.11zm4.62 3.326a.6.6 0 0 1 .172-.064c-.044.038-.053.083-.054.133-.037-.024-.08-.046-.118-.069m-4.681 1.073c-.128-.106-.3-.192-.431-.297.066-.357.126-.712.158-1.055l.279-.045c.002.071.002.143.02.205.039.146.101.277.161.406-.101.25-.168.512-.187.786m5.855.527c-.376-.069-.821-.071-1.083.004.006-.102.109-.55-.017-.374-.065.115.025.291-.056.428-.028.048-.051.07-.069.078.014.009.029.015.055.044.045.057-.139.528-.139.543.025.363.348.669.435 1.032a6 6 0 0 0-.459.701 1 1 0 0 0-.07.215c.013-.132.013-.277.031-.402.039-.281.129-.636.036-.801-.049.298-.055.602-.099.902-.023.154-.04.325-.103.469-.035.08-.066.121-.158.114-.047-.004-.411-.079-.425-.109a11 11 0 0 0-.548-1.095c.039.012.102 0 .17-.07-.003.004.184-.293.026-.148-.161.081-.208.14-.214.183q-.006-.015-.015-.028c-.113-.187-.273-.362-.411-.542a7 7 0 0 0-.074-1.082c.343.465.714.853 1.069 1.296-.017-.022.532-.382.248-.492-.015.074-.157.071-.16-.023-.203-.476-.389-.947-.606-1.408.11-.079.213-.165.323-.249.128-.097.436-.243.295-.217-.158.069-.33.206-.508.316q-.07.04-.146.073c-.053-.107-.096-.218-.153-.323a3 3 0 0 0-.073-.477q.309.039.598.052c.243.011.485.026.714.018-.139.148-.078.099.064-.004a2 2 0 0 0 .467-.078c.008.067.019.141-.001.22-.015.056-.056.12-.097.186a.4.4 0 0 0-.037-.175c-.023.109-.041.228-.06.344q-.034.069-.02.117c-.076.493-.141 1-.315 1.368.299-.032.249-.525.311-.861.024-.137.06-.289.086-.437.189.039.158-.184.232-.284a.5.5 0 0 0 .225-.163c.056.122.099.247.111.377.016-.036.043-.169.106-.136-.028-.013.213.183.212.183.068.09.094.331.162.478.043.089.095.166.14.237m-1.346-2.973q.057-.083.101-.173.173.06.354.111c-.015.116.007.363-.063.453a6 6 0 0 1-.392-.391m1.125.963c0 .146.023.291.06.431a4 4 0 0 1-.188-.26c.038-.06.075-.127.128-.171m-8.848.142a3 3 0 0 0-.262-.172c.206-.05.416-.093.62-.146-.043.046-.263.384-.358.318m9.107 7.242c.276.111.622.25.973.367q.01.342.04.661a4 4 0 0 0-.312-.285c-.223-.255-.459-.5-.701-.743m-8.924-7.195.008-.008q-.003.003-.007.009zm-1.322 2.187a10 10 0 0 0-.078-.455q.203-.066.401-.14.002.014.039.027c-.145.199-.263.401-.362.568m4.789-2.179c-.004-.063-.019-.127-.027-.192q.074-.015.143-.034.012.005.023.008-.07.106-.139.218m1.237 2.032c-.194.046-.358.135-.56.187a6 6 0 0 1-.561.107c-.053.008-.184-.074-.237-.094l-.234-.082a7 7 0 0 0-.438-.131q-.127-.035-.254-.066c.028-.162.051-.325.106-.46.109-.137.304-.091.496-.051.002.152.017.304.057.461.607-.434.902-1.238 1.371-1.835.068.664.197 1.33.361 1.948a1 1 0 0 0-.107.016m-2.671-.724c-.002.207.046.395.085.586a2 2 0 0 0-.573 0c-.108.017-.19.205-.177.297.008.058.042.118.053.178.007.045.011.181.058.205q-.2-.102-.379-.187-.03-.017-.062-.03c-.105-.263-.24-.559-.287-.888l-.008-.043c-.02-.165-.02-.337.034-.519.002-.007.48.157.523.167-.013.123-.043.238-.153.328-.18.045.048-.291-.132-.246.038.109-.081.363.066.369.001.092-.28.197 0 .186.097-.02.14-.063.2-.246q.231-.12.419-.285c.107.032.215.07.333.128m-1.405 4.406c-.131.02-.273.032-.401.055a2 2 0 0 0-.062-.275 4 4 0 0 1-.043-.318c.072-.153.144-.305.23-.445.077.331.172.659.276.983m-.938-5.166q-.012.033-.023.067c-.11.006-.215.006-.323.003a1 1 0 0 0-.084.003c-.058.004-.117.016-.095.039q-.24-.242-.492-.477c.282.102.649.231 1.007.324zm1.392-.316.492-.101c-.051.103-.09.197-.132.299-.135-.048-.275-.106-.408-.148zm7.372 7.486a2.3 2.3 0 0 0-.709-.144q.151-.13.297-.266.2.204.412.41m-1.324-.617a5 5 0 0 0-.348.138 7 7 0 0 0-.094-.758c-.009-.049-.201-1.18-.248-1.171.088-.016.172-.043.258-.062q.088.094.174.19c.002-.012.009-.008.012-.016-.006.021.025.04.14.052.119-.009.18-.051.288-.26.528-.175.935-.509 1.292-.902.031.051.062.099.063.147.136.119.541.244.48.424-.09-.012-.147.015-.206.04.118-.08.031-.257-.093-.321.124.235-.131.136-.227.222-.152.138-.364.422-.556.684-.062.09-.132.191-.197.292a2 2 0 0 0-.328-.023c-.118 0-.15.204-.276.185.004 0 .008-.252-.066-.085l-.012.072c.204.161.048.419.137.625a.7.7 0 0 0 .128.183.45.45 0 0 1-.183.278c-.185.023.084-.283-.1-.26.018.086-.064.245-.038.326m-4.38 5.311q.059.093.104.194c-.328-.315-.763-.587-1.252-.839.064-.268.057-.587.206-.794.161.581.669 1.026.942 1.439m1.009 2.955a9 9 0 0 0-.749-.784c.519.077 1.082.05 1.599.136a13 13 0 0 0-.85.648m-3.934-20.543c-.052.066-.143.07-.184.121-.188.237-.343.496-.521.733a11 11 0 0 0-.387-.641c-.205-.316-.517-.623-.689-.883-.048-.072-.114-.236-.094-.32.053.015.109.014.162.025 0 .004-.004.008-.004.012.007-.004.011-.008.02-.008a4.8 4.8 0 0 0 1.412.086c.026.145.197.188.224.336.229-.103.048.355.182.141a5 5 0 0 0-.107-.61h.672a3 3 0 0 0-.336.379c-.155.217-.231.473-.35.629m-1.627 9.736c-.364-.111-.615-.712-.16-.923.001.615.31 1.034.571 1.486a6 6 0 0 0 .17-.759c.397-.304.579-.837.748-1.387-.025.082.237.273.292.319.091.073.103.083.111.21.002.036.037.381.018.388-.04.014-.078.032-.127.036-.234.379-.525.894-.66 1.459-.11.164-.221.325-.36.428.118-.173.075-.282.111-.425.175-.51.576-1.111.604-1.568q-.17.403-.343.801c-.159.36-.299.758-.507 1.007a.3.3 0 0 0-.148.032 18 18 0 0 0-.32-1.104m2.817 6.924c-.633-.287-1.309-.558-1.935-.848-.022-.402-.126-.812-.243-1.215q.077-.685.053-1.347.346.127.702.201c.157.771.59 1.703.807 2.187.322-.568.037-1.338-.135-2.077.047-.03.113-.038.209-.014.042.008.123.156.15.191q.088.113.174.229.172.231.336.473c.078.117.147.294.269.365.099.059.222.082.315.148.068.047.114.113.168.172.024.027.125.097.133.129-.102-.475-.492-.977-.521-1.305-.33-.244-.498-.684-.803-.96.144-.03.553.058.865.104.117.254.229.53.518.637a6.7 6.7 0 0 0-.248-2.138c.22.267.483.48.597.875.158-.384-.17-.793-.23-1.152.009-.065.048-.108.097-.145.301.233.79.542 1.078.662l.036.013a1.7 1.7 0 0 0-.114.671c.276-.137.528-.305.768-.488.33.051.625.019.677-.219-.104.125-.212.02-.306-.102.061-.055.127-.101.184-.158.268.026.523.026.749-.037l-.49-.246q.282-.306.542-.645.164-.014.328-.033c.019.316.021.645.072.941-.091.088-.164.2-.241.307-.398.235-.709.692-.921.954-.232.288-.451.686-.5 1.085-.307.188-.618.457-.678.826.199.071.244.249.365.401a2.4 2.4 0 0 0-.056 1.185c.344-.225.609-.553.857-.902q.192.024.391.037c-.308.539-.527 1.178-.352 1.841.466-.333.75-.882 1.067-1.39.093.533.211 1.041.349 1.511-.427-.055-.937-.028-1.295.229.473.302.995.477 1.54.587.07.258.154.515.354.695-.037-.034-.29.279-.337.314a1.2 1.2 0 0 1-.432.186c-.296.066-.617.004-.773-.282-.708-.125-1.797-.262-2.593.291-.177-.127-.349-.25-.477-.367-.065-.056-.174-.203-.176-.289.543.029 1.084-.096 1.57-.254.065.139.242.139.306.274.195-.151.141.336.215.097-.035-.086-.09-.168-.119-.256-.021-.061-.019-.121-.039-.183-.041-.121-.148-.222-.217-.322-.542-.799-.829-1.909-1.613-2.413-.204.053-.248-.085-.469-.007.061-.097.049-.157-.093-.175-.197.328-.066.89-.215 1.253l-.01-.004c0-.183-.082-.264-.121-.399-.119-.523-.088-1.232-.3-1.641l.121.854c.05.381.133.779.09 1.088m-2.399-5.418.007-.007q-.002.01-.005.015zm11.871-7.246c-.083-.388-.139-.793-.211-1.187.012-.004.031-.004.041-.008.173-.074.404-.102.57-.203.02-.012.045-.032.069-.051q.037.01.072.019c-.263.391-.243.745-.153 1.112a.9.9 0 0 0-.209.28l.009.01q-.094.012-.188.028m.297 3.473c0 .144-.026.297-.051.451l-.363-.077q.21-.18.414-.374m-.99 2.224a9 9 0 0 0-.292.241 5.7 5.7 0 0 0-.488-.942c-.007-.012.174-.237.194-.258.177-.191.416-.312.625-.464.22.12.47.234.742.341-.232.179-.432.424-.667.597.308-.079.477-.423.75-.565l.036.014c0 .472-.332 1.156-.9 1.036m.782.344a.5.5 0 0 1-.122-.232c-.039-.18.043-.352.226-.407-.035.01-.009.256-.008.293.003.106.132.372.028.444-.037-.036-.088-.06-.124-.098m.145-4.834c-.023-.16-.03-.304.057-.387.106-.011.213-.029.316-.033-.128.135-.25.278-.373.42m-1.563 6.231c.254-.254.502-.519.767-.75q.034.015.07.025c-.05.377-.077.752-.093 1.127a8 8 0 0 0-.744-.402m-.411-9.063c.088-.168.164-.347.258-.506q.13.056.248.1c.019.141.047.273.086.408a6 6 0 0 0-.544-.01c-.016.002-.031.008-.048.008m.506 2.605c.339.008.688-.039 1.039-.096.037.165.226.226.25.399.054-.021.084-.014.107.002-.349.407-.666.828-.945 1.244-.115-.542-.213-1.099-.451-1.549m.523-1.398c.024.083.102.49.039.582q-.011.014-.025.016c-.071.014-.25-.084-.325-.102a4 4 0 0 0-.371-.069c-.017-.399-.15-.821-.147-1.118.194.004.388.008.573.004.039.101.076.203.115.297-.166-.122-.439-.207-.515-.207.082 0 .289.16.361.209a.7.7 0 0 1 .295.388m-10.524-2.437a7 7 0 0 0 1.016-.789c-.058.14-.116.271-.117.281-.002.375.252.723.395 1.088a79 79 0 0 1-1.114-.188c-.047-.134-.117-.263-.18-.392m8.628.586c.042.093.079.187.121.281a1 1 0 0 0-.149.101c.006-.128.012-.257.028-.382m-6.745.953c.077.178.172.312.209.441-.082.088-.162.18-.226.278-.042.062-.071.132-.102.199.006-.282.043-.629-.067-.78-.011.293.004.612 0 .909-.032.074-.062.145-.099.198-.042.058-.117.067-.148.11-.094.127-.176.262-.26.397-.22-.357-.437-.71-.683-1.049.099-.188.104-.508.16-.754.026-.121.058-.254.09-.385q.288.099.601.18.011.02.024.006.223.056.453.101a1 1 0 0 0 .048.149m-4.284 2.413a1.3 1.3 0 0 0 .269-.307c.053-.093.098-.199.144-.302.057.125 0 .285.063.418.058.118.211.243.367.367-.252.061-.526.079-.8.098a5 5 0 0 0-.043-.274m2.218-1.312q-.054-.14-.103-.277c.084.117.17.214.259.314-.033.063-.156.057-.156-.037m2.543-4.539c.025.188.09.366.169.535a4 4 0 0 0-.382-.066c.049-.176.1-.352.213-.469m-3.527 3.996c.286.371.586.713.871 1.092.064-.275.246.217.269-.033-.215-.088.051-.246.09-.371.286.312.584.558.882.808a9 9 0 0 1-.679.192c-.039.01-.199-.11-.239-.131a6 6 0 0 0-.261-.127c-.154-.073-.305-.148-.463-.209-.341-.134-.704-.243-1.074-.225-.078.004-.107.107-.168.146.098-.232.176-.489.244-.753.194-.107.373-.236.528-.389m.782-.961c.059-.14-.025-.453.13-.484.242.154.564.295.919.42-.07.365-.143.725-.251 1.037-.014-.019-.026-.043-.043-.062-.172-.215-.419-.405-.598-.616-.072-.088-.131-.189-.196-.291.01-.004.019-.011.039-.004m-.025-.894q.03-.017.06-.035c.087.058.151.125.126.203a.33.33 0 0 0-.206.039c.071-.051.063-.133.02-.207m8.672-.442c-.299.315-.326 1.036-.271 1.747-.061.015-.244.078-.299.058-.282-.109-.572-.203-.946-.187-.099.004-.118.175-.22.162 0 0-.006-.209-.06-.069l-.007.063c.174.125.053.344.133.512.012.023.038.05.057.074-.055.041-.094.086-.084.148.057-.015.096-.049.147-.07.134.135.336.277.477.41.407.383.857.785 1.333 1.11.004.062.024.12.041.179-.021.078-.031.168-.062.233-.038.005-.059.034-.087.052a5.7 5.7 0 0 0-.879-.426c.274-.039.537-.086.728-.207-.532-.238-1.206-.345-1.928-.409a6 6 0 0 1-.079-.258l-.064-.024a5 5 0 0 0-.124-.871c-.075-.346-.171-.807-.27-1.023a3 3 0 0 0-.277-.465c-.196-.094-.171.078-.277.094.038-.161.009-.266-.165-.268-.375.06-.686.369-.936.672-.031-.119-.08-.24-.092-.346q.11-.116.211-.238c.009 0 .012-.008.022-.008l-.014-.002c.18-.225.307-.467.196-.756a2.3 2.3 0 0 0-.418.162c-.014-.232.027-.416.365-.388-.259-.043-.415-.145-.459-.325-.11-.408-.169-.847-.227-1.285h.697c-.006.643.049 1.328.279 1.551-.008.109-.038.191-.097.238.384-.086.711-.242 1.051-.379-.067.184-.568.219-.45.385.214-.131.438-.24.657-.361.15-.082.318-.129.467-.211.14-.078.263-.18.41-.258l1.051-.557c.006.018.021.034.021.051.043.037.113.076.185.115a.3.3 0 0 0-.056.2c-.059.011-.133.011-.176.05-.151.137-.365.422-.555.684-.175.242-.391.566-.505.813-.108.234-.037.548-.293.714-.185.024.085-.285-.1-.261.024.113-.127.351.02.375-.012.09-.304.164-.024.183.097-.009.146-.047.229-.222.693-.26 1.127-.828 1.521-1.446.009-.037.019-.07.073-.054.031-.073.023-.188.031-.289.134.205.292.402.378.535-.002.254-.161-.067-.279.093m-2.039-.929c-.14.019-.172-.055-.225-.168q-.077-.17-.156-.336l-.158-.332c-.011-.024-.045-.11-.078-.184h.638c.008 0 .022.004.03.004.061.002.131-.002.199-.004h.133c-.036.293-.078.578-.174.801.246-.035.187-.441.227-.721q.005-.038.014-.08h.9l.009.024c-.162.113-.354.215-.369.422.022-.063.076-.055.107-.098.126-.035.247-.092.372-.141.043.063.067.125.089.18a8 8 0 0 1-1.011.455c-.172.063-.366.154-.547.178m2.504 3.152c.204.055.211-.144.273-.277q.05-.002.1-.004c.043 0 .176.508.201.562a.7.7 0 0 0 .233.295c.041.03.096.042.133.076.021.02.077.172.086.173l-.149-.013c-.201-.339-.612-.624-1.041-.847q.011-.112.016-.23.051.001.102-.004c-.075.125-.104.226.046.269m-5.727-4.172c.037.11.074.219.1.319.016.064.022.127.032.193a2.7 2.7 0 0 0-.344-.512zm1.754 1.684c.26-.205.486-.457.571-.807.013-.049.017-.107.027-.162.168.186.337.363.506.549-.354.154-.766.248-1.104.42m-2.812.613c-.102-.14-.215-.293-.299-.443a1 1 0 0 1-.068-.186c.125.004.14-.09.156-.187.424.135.869.199 1.308.22.016.03.037.061.051.09.078.166.131.346.131.494-.353-.101-.908-.082-1.279.012m1.839-.144c-.042-.102-.087-.2-.124-.305.063.09.152.16.185.269zm-.261 1.896q-.08-.03-.156-.06c-.039.117-.116.144-.225.109l-.072-.094q.127-.144.253-.299c.038 0 .079.004.114.002.105 0 .205-.008.308-.011a3 3 0 0 0-.222.353m.238 5.808c.444.289.909.546 1.388.69-.042-.076-.097-.14-.146-.209.216.154.443.285.688.361-.659.018-1.301.078-1.9.091-.19.005-.403.027-.606.082a12 12 0 0 0-.72-.907c.547.223 1.17.449 1.632.469a1.6 1.6 0 0 0-.336-.577m-1.014 1.993c-.066-.167-.136-.326-.203-.49.053.041.102.086.155.125.004.116.008.238.058.366zm-1.794 2.422-.012-.061v-.02c.093.114.182.233.273.349-.156-.061-.246-.149-.261-.268m4.984-4.897c.067.168.103.348.178.513.072.159.213.281.342.401.148.137.234.297.361.446a10 10 0 0 0-.297-.027c-.027-.056-.088-.091-.193-.094a1.1 1.1 0 0 0-.293.082l-.067-.001c-.242-.621-.662-1.022-1.105-1.394.201.02.394.032.551.011a1.34 1.34 0 0 0-.422-.445c.1-.035.199-.072.261-.113.116-.082.266-.154.393-.24.09.303.186.596.291.861m-1.445 2.274c.146.009.286.007.43.009l-.134.162c-.099-.058-.206-.111-.296-.171m-2.334 2.145-.008-.005c-.356-.292-.879-.595-1.035-1.18a2.7 2.7 0 0 0 .478-.077c.172.457.365.88.565 1.262m.721-8.434a4 4 0 0 0-.179.269 5 5 0 0 0-.261.078c.072-.188.011-.558.205-.582.071.053.16.103.242.155q-.003.04-.007.08m.047-2.336a17 17 0 0 0-.563-.114q-.012-.024-.026-.044.358.031.711.001a5 5 0 0 0-.122.157m-.488 1.821c.075-.044.091-.122.073-.2l.076-.086c.09.078.157.164.12.252a.43.43 0 0 0-.269.034m-4.766 1.765c.204-.061.68-.28.884-.227.168.041.561.613.668.588q-.11.025-.22.051c-.02-.034-.039-.073-.058-.106-.249-.138-.231.088-.371.097.065-.202.038-.344-.189-.36-.254.024-.492.14-.713.293.002-.116.004-.231-.001-.336m.879 1.531q.002.186.015.363c-.252-.062-.502-.123-.728-.202.244-.046.479-.103.713-.161m-.557 2.191a7 7 0 0 0-.08-.723c.021-.018.049-.03.068-.05.205.02.431.023.631-.004-.092.355-.293.674-.619.777m-.341-3.886q.195-.03.389-.055c-.065.09-.244.105-.381.132zm12.01 2.242a4.6 4.6 0 0 0-.471.512c-.103-.122-.207-.243-.277-.351-.048-.071-.114-.237-.094-.321.302.089.614.123.925.132a.2.2 0 0 0-.083.028m-9.932 3.684c-.086.077.173.343.216.394.058.066.115.133.183.187.053.043.292.176.299.239.006.07.018.14.021.204.001.016-.003.032-.002.048-.03.004-.058.019-.077.064a.8.8 0 0 0-.084.341 2.7 2.7 0 0 0-.696-.3c-.04-.35-.099-.69-.166-1.025a.56.56 0 0 0 .306-.152m7.103 1.382q-.127.07-.249.139a.36.36 0 0 1 .216-.34c.003.072.021.134.033.201m-.198-1.133c.006.028.008.061.012.09-.064.014-.125.051-.186.078a.8.8 0 0 1 .174-.168" style="fill:#072748;fill-opacity:1;fill-rule:nonzero;stroke:none;stroke-width:.0607595" transform="matrix(2.19444 0 0 -2.19444 -334.284 1011.737)"/></g></svg>